<svg width="132" height="101" viewBox="0 0 132 101" fill="none" xmlns="http://www.w3.org/2000/svg">
<path d="M129.42 78.56C114.37 71.36 92.47 83.06 91.63 83.51C87.83 85.46 84.82 86.06 83.57 85.11C82.38 84.2 81.38 81.83 81.37 79.1H81.35L81.37 78.86C81.37 78.53 81.4 78.2 81.44 77.86L82.36 63.87V47.24C82.36 46.87 82.31 46.5 82.22 46.14C80.4 23.61 60.67 6.83004 38.15 8.64004C18.14 10.26 2.26002 26.15 0.66002 46.16C0.57002 46.52 0.52002 46.89 0.52002 47.26V73.87C0.52002 76.49 2.65002 78.62 5.27002 78.62C7.89002 78.62 10.02 76.49 10.02 73.87V66.11C10.02 63.86 11.84 62.04 14.09 62.04H14.26C16.51 62.04 18.33 63.86 18.33 66.11V87.6C18.33 90.22 20.46 92.35 23.08 92.35C25.7 92.35 27.83 90.22 27.83 87.6V66.38C27.83 63.98 29.77 62.04 32.17 62.04H32.37C34.77 62.04 36.71 63.98 36.71 66.38V95.73C36.72 98.35 38.84 100.47 41.46 100.48C44.08 100.47 46.2 98.35 46.21 95.73V76.02C46.21 76.02 46.11 74.73 46.08 74.5C46.07 74.37 46.06 74.23 46.06 74.1V66.38C46.06 63.98 48 62.04 50.4 62.04H50.6C53 62.04 54.94 63.98 54.94 66.38V74.1C54.94 74.25 54.93 74.39 54.91 74.54C54.89 74.74 54.8 76.32 54.8 76.32V87.6C54.8 90.22 56.93 92.35 59.55 92.35C62.17 92.35 64.3 90.22 64.3 87.6V77C64.3 77 64.14 74.49 64.14 74.11V66.39C64.14 63.99 66.08 62.05 68.48 62.05H68.68C71.08 62.05 73.02 63.99 73.02 66.39V73.99L73 74.37C73 74.44 72.98 74.51 72.98 74.58C72.98 74.59 72.98 74.6 72.98 74.6C72.63 80.39 73.28 88.11 78.36 91.99C80.32 93.48 82.73 94.26 85.19 94.21C88.24 94.21 91.75 93.2 95.7 91.17C100.93 88.34 116.51 81.95 125.72 86.37C127.85 87.44 130.45 86.57 131.52 84.44C132.59 82.31 131.72 79.71 129.59 78.64C129.55 78.62 129.5 78.6 129.45 78.57L129.42 78.56Z" fill="#3BAEE4"/>
<path d="M28.41 36.73C27.63 42.78 34.22 46.94 39.73 45.7C46.07 44.28 47.16 34.85 42.57 30.99C39.1 28.08 34.2 28.2 31.06 31.55C29.44 33.28 28.62 35.05 28.41 36.73Z" fill="white"/>
<path d="M36.49 40.91C37.98 41.18 39.04 39.23 37.94 38.13C37.06 37.25 35.52 37.34 35.23 38.57C34.99 39.6 35.35 40.71 36.49 40.91Z" fill="black"/>
<path d="M48.57 38.0999C47.95 42.9299 53.2 46.2399 57.6 45.2599C62.66 44.1299 63.53 36.5999 59.87 33.5299C57.1 31.2099 53.19 31.2999 50.69 33.9699C49.39 35.3399 48.74 36.7499 48.57 38.0999Z" fill="white"/>
<path d="M54.16 40.7299C55.35 40.9399 56.2 39.3899 55.32 38.5099C54.62 37.8099 53.39 37.8799 53.15 38.8699C52.96 39.6799 53.24 40.5699 54.16 40.7299Z" fill="black"/>
<path d="M39.68 3.68005C40.78 3.68005 41.67 4.57005 41.67 5.67005V11.3501C41.67 12.4501 40.78 13.3401 39.68 13.3401C38.58 13.3401 37.69 12.4501 37.69 11.3501V5.67005C37.69 4.57005 38.58 3.68005 39.68 3.68005Z" fill="#3BAEE4"/>
<path d="M39.68 6.86C41.5743 6.86 43.11 5.32434 43.11 3.43C43.11 1.53566 41.5743 0 39.68 0C37.7857 0 36.25 1.53566 36.25 3.43C36.25 5.32434 37.7857 6.86 39.68 6.86Z" fill="#3BAEE4"/>
</svg>
